<?xml version="1.0" encoding="utf-8"?>
<!-- Generator: Adobe Illustrator 25.4.1, SVG Export Plug-In . SVG Version: 6.00 Build 0)  -->
<svg version="1.1" id="Capa_1" xmlns="http://www.w3.org/2000/svg" xmlns:xlink="http://www.w3.org/1999/xlink" x="0px" y="0px"
	 viewBox="0 0 283.5 283.5" style="enable-background:new 0 0 283.5 283.5;" xml:space="preserve">
<style type="text/css">
	.st0{fill:#0071BC;}
	.st1{font-family:'Eurostile';}
	.st2{font-size:13.3518px;}
</style>
<path class="st0" d="M229.2,95c0,0-13.6-0.4-15.6,0s-3.7,0.8-4.8,2.9c-5.8,10.3-16.9,29.9-20.1,35.6c-0.4,0.7-1.4,0.6-1.6-0.1
	c-2.1-6.1-7.9-26.1-10.8-36.2c-0.2-0.7-0.4-1.3-0.8-1.6c-0.3-0.3-0.8-0.5-1.5-0.5c-5.8,0.1-11.5,0.1-17.3,0c-1.4,0-1.9,0.6-2.1,1.9
	c-1.5,10.8-10.4,75.3-10.9,79.2c-0.1,0.5,0.3,1,0.9,1c6.3,0,12.2,0.1,18.2,0c1.1,0,1.4,0,1.7-1.1c0-0.2,0.1-0.4,0.1-0.6l4.8-34.4
	c0.1-1,1.4-1.1,1.7-0.2c1.7,5.6,3,16,4.4,21.9c0.4,1.7,1,2.4,2.8,2.3l10,0c1.4,0,2.2-0.4,2.9-1.7c3-5.8,8.1-16.1,11.4-22
	c0.5-0.9,1.6-0.5,1.4,0.4c-3.8,27.9-10.9,82-11.3,84.7c-4.1,1.9-8.3,3.5-12.7,4.8c-8.5,2.6-17.6,3.9-26.9,3.9
	c-51.6,0-93.5-41.9-93.5-93.5c0-45.8,33-84,76.5-92c-1,8-7.4,55.6-9.5,70.9c-0.7,5.1-1,5.1-6.3,5.1c-5.6,0-11.2,0-17.3,0
	c-0.6,0-0.8-0.6-0.8-1.2c1.3-8.8,3.1-23.3,3.8-28.2c0.1-0.9-0.6-1.7-1.4-1.7h0c0,0-11.2,0.2-16.8,0c-2-0.1-2.6,0.7-2.8,2.4
	c-0.5,4-1.1,7.9-1.6,11.9c-1.3,10.1-2.6,20.2-4,30.3c-1.3,9.6-2.8,19.1-4.1,28.7c-0.3,2.5-0.6,5-0.9,7.7c-0.1,0.6,0.4,1.1,1,1.1
	c6.2,0,12.1,0.1,18,0c0.6,0,1.9-1.2,2-1.9c0.5-2.4,0.7-4.9,1-7.4c0.9-6.6,1.8-13.2,2.7-19.9c0.2-1.5,0.5-1.9,2-1.9
	c4.3,0.1,8.5,0.1,12.8,0.1c2.5,0,4.9,0,7.6,0c0.6,0,1.4,0.6,1.3,1.2c-1.3,9.6-2.6,19-3.9,28.6c-0.1,0.6,0.1,1.2,0.8,1.2
	c6.5,0,12.9,0,19,0c1.9,0,1.9,0,2.1-1.5v0c0-0.1,0.2-1.1,0.4-2.9c2.1-15.2,11.6-87.9,16.5-124.2c0,0,0,0,0,0
	c1.6-11.5,2.6-19.1,2.6-19.6c0,0,0-0.1,0-0.1c-0.1-0.1-0.4-0.1-1.5-0.1c-1.7-0.1-3.4-0.1-5.1-0.1c-0.2,0-0.4,0-0.6,0
	c-62.6,0-113.3,50.7-113.3,113.3S90.6,255,153.2,255c0.3,0,0.5,0,0.8,0c10.8-0.1,21.2-1.6,31-4.5c1.8-0.5,3.6-1.1,5.3-1.7
	c5.9-2.1,11.7-4.6,17.1-7.6l4.3-2.4l3.8-27.3l15.8-114.2C231.6,95.6,229.2,95,229.2,95z"/>
<text transform="matrix(0.1327 -1.005 0.9914 0.1309 228.2789 228.7465)" class="st0 st1 st2">MERLE.ES</text>
<path class="st0" d="M157.1,95.4"/>
</svg>
